<?xml version="1.0" encoding="UTF-8" standalone="no"?>
<svg
   xmlns:dc="http://purl.org/dc/elements/1.1/"
   xmlns:cc="http://creativecommons.org/ns#"
   xmlns:rdf="http://www.w3.org/1999/02/22-rdf-syntax-ns#"
   xmlns:svg="http://www.w3.org/2000/svg"
   xmlns="http://www.w3.org/2000/svg"
   xmlns:sodipodi="http://sodipodi.sourceforge.net/DTD/sodipodi-0.dtd"
   xmlns:inkscape="http://www.inkscape.org/namespaces/inkscape"
   version="1.1"
   id="svg2"
   xml:space="preserve"
   width="662.66669"
   height="625.33331"
   viewBox="0 0 662.66669 625.33331"
   sodipodi:docname="multiQR_icon.eps"><metadata
     id="metadata8"><rdf:RDF><cc:Work
         rdf:about=""><dc:format>image/svg+xml</dc:format><dc:type
           rdf:resource="http://purl.org/dc/dcmitype/StillImage" /></cc:Work></rdf:RDF></metadata><defs
     id="defs6"><clipPath
       clipPathUnits="userSpaceOnUse"
       id="clipPath20"><path
         d="m 668.789,4687.89 c 370.471,0 668.711,-298.24 668.711,-668.67 V 669.488 C 1337.5,299.02 1039.26,0.78125 668.789,0.78125 298.32,0.78125 0.078125,299.02 0.078125,669.488 V 4019.22 c 0,370.43 298.241875,668.67 668.710875,668.67 z"
         id="path18" /></clipPath><linearGradient
       x1="89.190002"
       y1="617.02002"
       x2="89.190002"
       y2="134.55"
       gradientUnits="userSpaceOnUse"
       gradientTransform="matrix(7.5,0,0,-7.5,-0.0676267,4690)"
       spreadMethod="pad"
       id="linearGradient26"><stop
         style="stop-opacity:1;stop-color:#003294"
         offset="0"
         id="stop22" /><stop
         style="stop-opacity:1;stop-color:#3f95ff"
         offset="1"
         id="stop24" /></linearGradient><clipPath
       clipPathUnits="userSpaceOnUse"
       id="clipPath36"><path
         d="m 2954.34,1747.07 c -260.04,-258.91 -685.59,-258.91 -945.67,0 L 195.078,3552.46 C 70.1992,3677.27 0,3846.6 0,4023.16 c 0,176.57 70.1992,345.9 195.078,470.71 260.043,258.9 685.66,258.9 945.662,0 l 1813.6,-1805.39 c 124.88,-124.81 195.07,-294.14 195.07,-470.71 0,-176.56 -70.19,-345.89 -195.07,-470.7 z"
         id="path34" /></clipPath><linearGradient
       x1="476.66"
       y1="715.73999"
       x2="476.66"
       y2="232.17999"
       gradientUnits="userSpaceOnUse"
       gradientTransform="matrix(5.325,5.325,4.425,-4.425,-2758.79,2398.15)"
       spreadMethod="pad"
       id="linearGradient42"><stop
         style="stop-opacity:1;stop-color:#003294"
         offset="0"
         id="stop38" /><stop
         style="stop-opacity:1;stop-color:#3f95ff"
         offset="1"
         id="stop40" /></linearGradient><clipPath
       clipPathUnits="userSpaceOnUse"
       id="clipPath52"><path
         d="m 4296.37,4687.89 c 370.47,0 668.71,-298.24 668.71,-668.67 V 669.488 C 4965.08,299.02 4666.84,0.78125 4296.37,0.78125 3925.94,0.78125 3627.7,299.02 3627.7,669.488 V 4019.22 c 0,370.43 298.24,668.67 668.67,668.67 z"
         id="path50" /></clipPath><linearGradient
       x1="572.85999"
       y1="617.02002"
       x2="572.85999"
       y2="134.55"
       gradientUnits="userSpaceOnUse"
       gradientTransform="matrix(7.5,0,0,-7.5,-0.0676267,4690)"
       spreadMethod="pad"
       id="linearGradient58"><stop
         style="stop-opacity:1;stop-color:#003294"
         offset="0"
         id="stop54" /><stop
         style="stop-opacity:1;stop-color:#3f95ff"
         offset="1"
         id="stop56" /></linearGradient><clipPath
       clipPathUnits="userSpaceOnUse"
       id="clipPath68"><path
         d="m 2009.1,1749.02 c -124.88,124.81 -195.08,294.14 -195.08,470.71 0,176.56 70.2,345.89 195.08,470.7 l 1813.67,1805.39 c 260.08,258.91 685.63,258.91 945.75,0 124.84,-124.8 195,-294.14 195,-470.7 0,-176.57 -70.16,-345.86 -195,-470.71 L 2955.08,1749.02 c -260.31,-258.9 -685.86,-258.9 -945.98,0 z"
         id="path66" /></clipPath><linearGradient
       x1="536.31"
       y1="964.71002"
       x2="536.31"
       y2="481.14999"
       gradientUnits="userSpaceOnUse"
       gradientTransform="matrix(5.325,-5.325,-4.425,-4.425,3444.46,8866.53)"
       spreadMethod="pad"
       id="linearGradient74"><stop
         style="stop-opacity:1;stop-color:#003294"
         offset="0"
         id="stop70" /><stop
         style="stop-opacity:1;stop-color:#3f95ff"
         offset="1"
         id="stop72" /></linearGradient></defs><sodipodi:namedview
     pagecolor="#ffffff"
     bordercolor="#666666"
     borderopacity="1"
     objecttolerance="10"
     gridtolerance="10"
     guidetolerance="10"
     inkscape:pageopacity="0"
     inkscape:pageshadow="2"
     inkscape:window-width="640"
     inkscape:window-height="480"
     id="namedview4" /><g
     id="g10"
     inkscape:groupmode="layer"
     inkscape:label="ink_ext_XXXXXX"
     transform="matrix(1.3333333,0,0,-1.3333333,0,625.33333)"><g
       id="g12"
       transform="scale(0.1)"><g
         id="g14"><g
           id="g16"
           clip-path="url(#clipPath20)"><path
             d="m 668.789,4687.89 c 370.471,0 668.711,-298.24 668.711,-668.67 V 669.488 C 1337.5,299.02 1039.26,0.78125 668.789,0.78125 298.32,0.78125 0.078125,299.02 0.078125,669.488 V 4019.22 c 0,370.43 298.241875,668.67 668.710875,668.67 z"
             style="fill:url(#linearGradient26);fill-opacity:1;fill-rule:nonzero;stroke:none"
             id="path28" /></g></g><g
         id="g30"><g
           id="g32"
           clip-path="url(#clipPath36)"><path
             d="m 2954.34,1747.07 c -260.04,-258.91 -685.59,-258.91 -945.67,0 L 195.078,3552.46 C 70.1992,3677.27 0,3846.6 0,4023.16 c 0,176.57 70.1992,345.9 195.078,470.71 260.043,258.9 685.66,258.9 945.662,0 l 1813.6,-1805.39 c 124.88,-124.81 195.07,-294.14 195.07,-470.71 0,-176.56 -70.19,-345.89 -195.07,-470.7 z"
             style="fill:url(#linearGradient42);fill-opacity:1;fill-rule:nonzero;stroke:none"
             id="path44" /></g></g><g
         id="g46"><g
           id="g48"
           clip-path="url(#clipPath52)"><path
             d="m 4296.37,4687.89 c 370.47,0 668.71,-298.24 668.71,-668.67 V 669.488 C 4965.08,299.02 4666.84,0.78125 4296.37,0.78125 3925.94,0.78125 3627.7,299.02 3627.7,669.488 V 4019.22 c 0,370.43 298.24,668.67 668.67,668.67 z"
             style="fill:url(#linearGradient58);fill-opacity:1;fill-rule:nonzero;stroke:none"
             id="path60" /></g></g><g
         id="g62"><g
           id="g64"
           clip-path="url(#clipPath68)"><path
             d="m 2009.1,1749.02 c -124.88,124.81 -195.08,294.14 -195.08,470.71 0,176.56 70.2,345.89 195.08,470.7 l 1813.67,1805.39 c 260.08,258.91 685.63,258.91 945.75,0 124.84,-124.8 195,-294.14 195,-470.7 0,-176.57 -70.16,-345.86 -195,-470.71 L 2955.08,1749.02 c -260.31,-258.9 -685.86,-258.9 -945.98,0 z"
             style="fill:url(#linearGradient74);fill-opacity:1;fill-rule:nonzero;stroke:none"
             id="path76" /></g></g></g></g></svg>
